<svg width="65" height="64" viewBox="0 0 65 64" fill="none" xmlns="http://www.w3.org/2000/svg">
<path d="M56.48 0H8.48C4.06172 0 0.479996 3.58172 0.479996 8V56C0.479996 60.4183 4.06172 64 8.48 64H56.48C60.8983 64 64.48 60.4183 64.48 56V8C64.48 3.58172 60.8983 0 56.48 0Z" fill="#F7F8F9"/>
<mask id="mask0_3113_180311" style="mask-type:alpha" maskUnits="userSpaceOnUse" x="0" y="0" width="65" height="64">
<path d="M56.48 0H8.47998C4.0617 0 0.47998 3.58172 0.47998 8V56C0.47998 60.4183 4.0617 64 8.47998 64H56.48C60.8983 64 64.48 60.4183 64.48 56V8C64.48 3.58172 60.8983 0 56.48 0Z" fill="#F7F8F9"/>
</mask>
<g mask="url(#mask0_3113_180311)">
<path d="M51.14 39.9999L30.7 65.9999C29.7681 67.1793 29.1873 68.5973 29.0241 70.0916C28.861 71.5858 29.1221 73.0958 29.7775 74.4485C30.433 75.8012 31.4563 76.9418 32.7302 77.7397C34.004 78.5376 35.4769 78.9605 36.98 78.9599H77.88C79.3832 78.9605 80.856 78.5376 82.1299 77.7397C83.4038 76.9418 84.4271 75.8012 85.0825 74.4485C85.738 73.0958 85.9991 71.5858 85.836 70.0916C85.6728 68.5973 85.092 67.1793 84.16 65.9999L63.7 39.9999C62.9512 39.0511 61.9972 38.2842 60.9095 37.757C59.8218 37.2298 58.6288 36.9559 57.42 36.9559C56.2113 36.9559 55.0183 37.2298 53.9306 37.757C52.8429 38.2842 51.8888 39.0511 51.14 39.9999Z" fill="#FBFCFE"/>
<path d="M77.88 79.8399H36.98C35.2894 79.8397 33.6331 79.3632 32.2008 78.4652C30.7684 77.5672 29.6179 76.2839 28.8811 74.7623C28.1444 73.2407 27.851 71.5424 28.0348 69.8618C28.2185 68.1812 28.8719 66.5864 29.92 65.2599L50.36 39.2599C51.2045 38.194 52.2792 37.3328 53.5035 36.7408C54.7278 36.1488 56.0701 35.8413 57.43 35.8413C58.79 35.8413 60.1323 36.1488 61.3566 36.7408C62.5809 37.3328 63.6555 38.194 64.5 39.2599L84.94 65.2599C85.9882 66.5864 86.6416 68.1812 86.8253 69.8618C87.009 71.5424 86.7157 73.2407 85.9789 74.7623C85.2421 76.2839 84.0917 77.5672 82.6593 78.4652C81.227 79.3632 79.5706 79.8397 77.88 79.8399ZM57.42 37.9999C56.3611 37.9943 55.3149 38.2311 54.3616 38.6921C53.4083 39.1532 52.5731 39.8263 51.92 40.6599L31.48 66.6599C30.6643 67.6922 30.156 68.9334 30.0135 70.2414C29.8709 71.5493 30.0998 72.8709 30.6739 74.0547C31.2481 75.2384 32.1442 76.2364 33.2596 76.9342C34.3749 77.632 35.6644 78.0014 36.98 77.9999H77.88C79.194 77.9976 80.4808 77.6256 81.5932 76.9263C82.7056 76.227 83.5988 75.2287 84.1705 74.0457C84.7422 72.8626 84.9694 71.5425 84.8261 70.2364C84.6827 68.9303 84.1747 67.6909 83.36 66.6599L62.92 40.6599C62.267 39.8263 61.4318 39.1532 60.4785 38.6921C59.5252 38.2311 58.479 37.9943 57.42 37.9999Z" fill="#C6CDD0"/>
<path d="M14.48 31.1802L-12.12 57.5202C-13.2457 58.6368 -14.0143 60.0627 -14.3281 61.6169C-14.6419 63.1712 -14.4868 64.7836 -13.8824 66.2495C-13.2781 67.7154 -12.2517 68.9686 -10.9337 69.8501C-9.61575 70.7315 -8.06554 71.2015 -6.47996 71.2002H46.64C48.2256 71.2015 49.7758 70.7315 51.0938 69.8501C52.4118 68.9686 53.4381 67.7154 54.0425 66.2495C54.6469 64.7836 54.802 63.1712 54.4882 61.6169C54.1744 60.0627 53.4058 58.6368 52.28 57.5202L25.72 31.1802C24.2228 29.7023 22.2038 28.8737 20.1 28.8737C17.9963 28.8737 15.9772 29.7023 14.48 31.1802Z" fill="#F5F6F7"/>
<path d="M46.64 72.2002H-6.47996C-8.26846 72.221 -10.0212 71.6988 -11.5067 70.7025C-12.9922 69.7063 -14.1405 68.2828 -14.8 66.6202C-15.4968 64.9728 -15.6787 63.153 -15.3218 61.4003C-14.9648 59.6475 -14.0856 58.0438 -12.8 56.8002L13.74 30.4802C15.4309 28.8166 17.708 27.8843 20.08 27.8843C22.4521 27.8843 24.7291 28.8166 26.42 30.4802L52.98 56.8002C54.2497 58.0555 55.1173 59.6601 55.4725 61.4098C55.8276 63.1596 55.6544 64.9754 54.9747 66.6264C54.295 68.2774 53.1396 69.6889 51.6554 70.6815C50.1713 71.674 48.4255 72.2026 46.64 72.2002ZM15.16 32.0002L-11.42 58.2202C-12.4143 59.1917 -13.0931 60.4401 -13.3678 61.8028C-13.6425 63.1655 -13.5004 64.5794 -12.96 65.8602C-12.446 67.1544 -11.5513 68.2622 -10.3943 69.0371C-9.23731 69.812 -7.87239 70.2176 -6.47996 70.2002H46.64C48.0341 70.2084 49.3988 69.8002 50.5594 69.0278C51.72 68.2554 52.6235 67.1542 53.1542 65.865C53.6848 64.5759 53.8185 63.1577 53.5381 61.7921C53.2576 60.4266 52.5758 59.1758 51.58 58.2002L25 32.0002C23.6923 30.7007 21.9236 29.9714 20.08 29.9714C18.2365 29.9714 16.4678 30.7007 15.16 32.0002Z" fill="#C6CDD0"/>
</g>
<path d="M45.14 23.5198C48.9287 23.5198 52 20.4485 52 16.6598C52 12.8711 48.9287 9.7998 45.14 9.7998C41.3513 9.7998 38.28 12.8711 38.28 16.6598C38.28 20.4485 41.3513 23.5198 45.14 23.5198Z" fill="#FFFEDE"/>
<path d="M45.14 24.4998C43.5837 24.5037 42.0613 24.0456 40.7657 23.1835C39.4701 22.3213 38.4595 21.0939 37.8622 19.6569C37.2648 18.2199 37.1074 16.6378 37.4101 15.1113C37.7127 13.5847 38.4617 12.1824 39.5622 11.0819C40.6626 9.98149 42.065 9.23249 43.5915 8.92984C45.1181 8.6272 46.7001 8.78454 48.1371 9.38192C49.5742 9.97931 50.8015 10.9898 51.6637 12.2855C52.5258 13.5811 52.984 15.1035 52.98 16.6598C52.9747 18.7374 52.147 20.7285 50.6779 22.1976C49.2087 23.6668 47.2177 24.4945 45.14 24.4998ZM45.14 10.7998C43.9802 10.7958 42.8452 11.1361 41.8789 11.7776C40.9126 12.4191 40.1584 13.3329 39.7118 14.4033C39.2652 15.4738 39.1463 16.6526 39.3702 17.7907C39.594 18.9287 40.1505 19.9747 40.9693 20.7963C41.788 21.6178 42.8321 22.1779 43.9694 22.4057C45.1067 22.6334 46.2859 22.5185 47.3579 22.0756C48.4298 21.6326 49.3462 20.8816 49.991 19.9175C50.6358 18.9534 50.98 17.8196 50.98 16.6598C50.98 15.1091 50.3654 13.6216 49.2707 12.5232C48.1761 11.4248 46.6907 10.8051 45.14 10.7998Z" fill="#C6CDD0"/>
<path d="M56.48 64H8.48C6.35826 64 4.32343 63.1571 2.82314 61.6569C1.32285 60.1566 0.479996 58.1217 0.479996 56V8C0.479996 5.87827 1.32285 3.84344 2.82314 2.34315C4.32343 0.842855 6.35826 0 8.48 0L56.48 0C58.6017 0 60.6366 0.842855 62.1368 2.34315C63.6371 3.84344 64.48 5.87827 64.48 8V56C64.48 58.1217 63.6371 60.1566 62.1368 61.6569C60.6366 63.1571 58.6017 64 56.48 64ZM8.48 2C6.8887 2 5.36257 2.63214 4.23735 3.75736C3.11214 4.88258 2.48 6.4087 2.48 8V56C2.48 57.5913 3.11214 59.1174 4.23735 60.2426C5.36257 61.3679 6.8887 62 8.48 62H56.48C58.0713 62 59.5974 61.3679 60.7226 60.2426C61.8479 59.1174 62.48 57.5913 62.48 56V8C62.48 6.4087 61.8479 4.88258 60.7226 3.75736C59.5974 2.63214 58.0713 2 56.48 2H8.48Z" fill="#C6CDD0"/>
</svg>
