<?xml version="1.0" standalone="no"?>
<!DOCTYPE svg PUBLIC "-//W3C//DTD SVG 20010904//EN"
 "http://www.w3.org/TR/2001/REC-SVG-20010904/DTD/svg10.dtd">
<svg version="1.0" xmlns="http://www.w3.org/2000/svg"
 width="1088.000000pt" height="1088.000000pt" viewBox="0 0 1088.000000 1088.000000"
 preserveAspectRatio="xMidYMid meet">
<metadata>
Created by potrace 1.14, written by Peter Selinger 2001-2017
</metadata>
<g transform="translate(0.000000,1088.000000) scale(0.100000,-0.100000)"
fill="#000000" stroke="none">
<path d="M4749 8081 c-393 -394 -785 -783 -870 -864 -138 -134 -397 -384 -772
-749 -72 -71 -132 -128 -132 -128 -1 0 -62 -60 -137 -132 -75 -73 -231 -225
-348 -338 -117 -113 -276 -267 -353 -343 -238 -232 -391 -380 -435 -419 -23
-21 -42 -42 -42 -48 0 -5 -3 -10 -8 -10 -4 0 -71 -62 -149 -137 -78 -76 -241
-235 -363 -353 -122 -118 -274 -266 -339 -328 -102 -100 -326 -317 -688 -669
l-113 -109 147 -140 c80 -76 168 -159 194 -184 26 -25 116 -110 200 -190 83
-80 170 -162 193 -184 23 -21 86 -81 142 -135 56 -53 164 -156 242 -230 106
-101 156 -157 203 -227 l62 -94 59 58 c33 31 115 110 181 175 66 64 121 117
122 117 0 0 57 55 126 123 70 67 203 196 296 287 413 399 622 602 718 695 57
55 212 206 346 335 133 129 281 273 329 320 49 47 192 186 320 310 128 124
279 270 335 325 57 55 193 186 302 292 394 381 868 841 919 892 19 18 36 32
39 30 13 -12 815 -802 996 -981 119 -117 420 -413 669 -658 249 -245 552 -544
675 -665 123 -121 393 -386 600 -590 405 -399 910 -896 1015 -1000 l66 -65 63
94 c46 68 101 129 204 227 77 74 162 154 187 179 55 53 336 320 400 380 40 38
235 223 452 430 l78 75 -337 332 c-186 182 -460 452 -610 600 -150 147 -457
450 -684 673 -226 223 -522 514 -657 648 -136 134 -375 369 -532 524 -983 967
-1323 1304 -1921 1901 -367 367 -669 666 -671 666 -2 -1 -325 -324 -719 -718z"/>
</g>
</svg>
